ffmpeg started on 2025-05-28 at 11:36:14
Report written to "D:\Convert\FFMetrics\reports\psnr_report-6.txt"
Log level: 32
Command line:
ffmpeg -hide_banner -nostdin -i "G:\\\xc0\xed\xe8\xec\xe5\\\xce\xed\xe3\xee\xe8\xed\xe3\xe8\\!_36_\xce\xf1\xe5\xed\xfc_2024\\JamClub\\SAO\\\xc0\xeb\xfc\xf2\xe5\xf0\xed\xe0\xf2\xe8\xe2\xed\xe0\xff \xab\xcf\xf0\xe8\xe7\xf0\xe0\xf7\xed\xe0\xff \xef\xf3\xeb\xff\xbb\\\xd2\xc2-2\\JamClub_Sword_Art_Online_Alternative_Gun_Gale_Online_II_07_1080p_HEVC.mkv" -i "G:\\\xc0\xed\xe8\xec\xe5\\\xce\xed\xe3\xee\xe8\xed\xe3\xe8\\!_36_\xce\xf1\xe5\xed\xfc_2024\\JamClub\\SAO\\\xc0\xeb\xfc\xf2\xe5\xf0\xed\xe0\xf2\xe8\xe2\xed\xe0\xff \xab\xcf\xf0\xe8\xe7\xf0\xe0\xf7\xed\xe0\xff \xef\xf3\xeb\xff\xbb\\\xd2\xc2-2\\JamClub_Sword_Art_Online_Alternative_Gun_Gale_Online_II_07_1080p.mp4" -lavfi "[0:v]settb=AVTB,setpts=PTS-STARTPTS,format=pix_fmts=yuv420p10,fps=24000/1001,scale=1920:1080:flags=bicubic[main];[1:v]settb=AVTB,setpts=PTS-STARTPTS,format=pix_fmts=yuv420p,fps=24000/1001,scale=1920:1080:flags=bicubic[ref];[main][ref]psnr=eof_action=endall:stats_file='D\\:/Convert/FFMetrics/logs/psnr_logfile-6.txt'" -f null -
Input #0, matroska,webm, from 'G:\Аниме\Онгоинги\!_36_Осень_2024\JamClub\SAO\Альтернативная «Призрачная пуля»\ТВ-2\JamClub_Sword_Art_Online_Alternative_Gun_Gale_Online_II_07_1080p_HEVC.mkv':
  Metadata:
    COMPATIBLE_BRANDS: isomiso2avc1mp41
    MAJOR_BRAND     : isom
    MINOR_VERSION   : 512
    ENCODER         : Lavf61.7.100
  Duration: 00:24:02.35, start: -0.001000, bitrate: 1187 kb/s
  Stream #0:0: Video: hevc (Main 10), yuv420p10le(tv, bt709, progressive), 1920x1080 [SAR 1:1 DAR 16:9], 23.98 fps, 23.98 tbr, 1k tbn (default)
      Metadata:
        HANDLER_NAME    : VideoHandler
        VENDOR_ID       : [0][0][0][0]
        ENCODER         : Lavc61.19.100 libx265
        BPS             : 990458
        DURATION        : 00:24:02.190708333
        NUMBER_OF_FRAMES: 34578
        NUMBER_OF_BYTES : 178553585
        _STATISTICS_WRITING_APP: mkvpropedit v66.0.0 ('Josie') 64-bit
        _STATISTICS_WRITING_DATE_UTC: 2025-05-27 16:19:17
        _STATISTICS_TAGS: BPS DURATION NUMBER_OF_FRAMES NUMBER_OF_BYTES
  Stream #0:1(eng): Audio: aac (LC), 48000 Hz, stereo, fltp (default)
      Metadata:
        HANDLER_NAME    : SoundHandler
        VENDOR_ID       : [0][0][0][0]
        ENCODER         : Lavc61.19.100 aac
        BPS             : 193040
        DURATION        : 00:24:02.307000000
        NUMBER_OF_FRAMES: 67609
        NUMBER_OF_BYTES : 34802989
        _STATISTICS_WRITING_APP: mkvpropedit v66.0.0 ('Josie') 64-bit
        _STATISTICS_WRITING_DATE_UTC: 2025-05-27 16:19:17
        _STATISTICS_TAGS: BPS DURATION NUMBER_OF_FRAMES NUMBER_OF_BYTES
Input #1, mov,mp4,m4a,3gp,3g2,mj2, from 'G:\Аниме\Онгоинги\!_36_Осень_2024\JamClub\SAO\Альтернативная «Призрачная пуля»\ТВ-2\JamClub_Sword_Art_Online_Alternative_Gun_Gale_Online_II_07_1080p.mp4':
  Metadata:
    major_brand     : isom
    minor_version   : 512
    compatible_brands: isomiso2avc1mp41
    encoder         : Lavf60.16.100
  Duration: 00:24:02.33, start: 0.000000, bitrate: 4318 kb/s
  Stream #1:0[0x1](und): Video: h264 (High) (avc1 / 0x31637661), yuv420p(progressive), 1920x1080 [SAR 1:1 DAR 16:9], 4121 kb/s, 23.98 fps, 23.98 tbr, 90k tbn (default)
      Metadata:
        handler_name    : VideoHandler
        vendor_id       : [0][0][0][0]
  Stream #1:1[0x2](eng): Audio: aac (LC) (mp4a / 0x6134706D), 48000 Hz, stereo, fltp, 191 kb/s (default)
      Metadata:
        handler_name    : SoundHandler
        vendor_id       : [0][0][0][0]
Stream mapping:
  Stream #0:0 (hevc) -> settb:default
  Stream #1:0 (h264) -> settb:default
  psnr:default -> Stream #0:0 (wrapped_avframe)
  Stream #0:1 -> #0:1 (aac (native) -> pcm_s16le (native))
Output #0, null, to 'pipe:':
  Metadata:
    COMPATIBLE_BRANDS: isomiso2avc1mp41
    MAJOR_BRAND     : isom
    MINOR_VERSION   : 512
    encoder         : Lavf61.7.100
  Stream #0:0: Video: wrapped_avframe, yuv420p10le(tv, bt709, progressive), 1920x1080 [SAR 1:1 DAR 16:9], q=2-31, 200 kb/s, 23.98 fps, 23.98 tbn
      Metadata:
        encoder         : Lavc61.19.100 wrapped_avframe
  Stream #0:1(eng): Audio: pcm_s16le, 48000 Hz, stereo, s16, 1536 kb/s (default)
      Metadata:
        HANDLER_NAME    : SoundHandler
        VENDOR_ID       : [0][0][0][0]
        _STATISTICS_TAGS: BPS DURATION NUMBER_OF_FRAMES NUMBER_OF_BYTES
        BPS             : 193040
        DURATION        : 00:24:02.307000000
        NUMBER_OF_FRAMES: 67609
        NUMBER_OF_BYTES : 34802989
        _STATISTICS_WRITING_APP: mkvpropedit v66.0.0 ('Josie') 64-bit
        _STATISTICS_WRITING_DATE_UTC: 2025-05-27 16:19:17
        encoder         : Lavc61.19.100 pcm_s16le
frame=  110 fps=0.0 q=-0.0 size=N/A time=00:00:04.58 bitrate=N/A speed=9.08x    frame=  270 fps=262 q=-0.0 size=N/A time=00:00:11.26 bitrate=N/A speed=10.9x    frame=  459 fps=298 q=-0.0 size=N/A time=00:00:19.14 bitrate=N/A speed=12.4x    frame=  701 fps=342 q=-0.0 size=N/A time=00:00:29.23 bitrate=N/A speed=14.3x    frame=  939 fps=365 q=-0.0 size=N/A time=00:00:39.16 bitrate=N/A speed=15.2x    frame= 1162 fps=377 q=-0.0 size=N/A time=00:00:48.46 bitrate=N/A speed=15.7x    frame= 1379 fps=383 q=-0.0 size=N/A time=00:00:57.51 bitrate=N/A speed=  16x    frame= 1587 fps=386 q=-0.0 size=N/A time=00:01:06.19 bitrate=N/A speed=16.1x    frame= 1853 fps=400 q=-0.0 size=N/A time=00:01:17.28 bitrate=N/A speed=16.7x    frame= 2115 fps=411 q=-0.0 size=N/A time=00:01:28.21 bitrate=N/A speed=17.1x    frame= 2353 fps=415 q=-0.0 size=N/A time=00:01:38.13 bitrate=N/A speed=17.3x    frame= 2532 fps=410 q=-0.0 size=N/A time=00:01:45.60 bitrate=N/A speed=17.1x    frame= 2756 fps=412 q=-0.0 size=N/A time=00:01:54.94 bitrate=N/A speed=17.2x    frame= 2972 fps=412 q=-0.0 size=N/A time=00:02:03.95 bitrate=N/A speed=17.2x    frame= 3186 fps=412 q=-0.0 size=N/A time=00:02:12.88 bitrate=N/A speed=17.2x    frame= 3347 fps=406 q=-0.0 size=N/A time=00:02:19.59 bitrate=N/A speed=16.9x    frame= 3539 fps=404 q=-0.0 size=N/A time=00:02:27.60 bitrate=N/A speed=16.9x    frame= 3665 fps=395 q=-0.0 size=N/A time=00:02:32.86 bitrate=N/A speed=16.5x    frame= 3852 fps=394 q=-0.0 size=N/A time=00:02:40.66 bitrate=N/A speed=16.4x    frame= 4036 fps=392 q=-0.0 size=N/A time=00:02:48.33 bitrate=N/A speed=16.3x    frame= 4191 fps=387 q=-0.0 size=N/A time=00:02:54.79 bitrate=N/A speed=16.1x    frame= 4358 fps=384 q=-0.0 size=N/A time=00:03:01.76 bitrate=N/A speed=  16x    frame= 4562 fps=384 q=-0.0 size=N/A time=00:03:10.27 bitrate=N/A speed=  16x    frame= 4781 fps=386 q=-0.0 size=N/A time=00:03:19.40 bitrate=N/A speed=16.1x    frame= 5037 fps=391 q=-0.0 size=N/A time=00:03:30.08 bitrate=N/A speed=16.3x    frame= 5292 fps=394 q=-0.0 size=N/A time=00:03:40.72 bitrate=N/A speed=16.4x    frame= 5557 fps=399 q=-0.0 size=N/A time=00:03:51.77 bitrate=N/A speed=16.6x    frame= 5743 fps=398 q=-0.0 size=N/A time=00:03:59.53 bitrate=N/A speed=16.6x    frame= 5977 fps=399 q=-0.0 size=N/A time=00:04:09.29 bitrate=N/A speed=16.7x    frame= 6222 fps=402 q=-0.0 size=N/A time=00:04:19.50 bitrate=N/A speed=16.8x    frame= 6460 fps=404 q=-0.0 size=N/A time=00:04:29.43 bitrate=N/A speed=16.8x    frame= 6698 fps=406 q=-0.0 size=N/A time=00:04:39.36 bitrate=N/A speed=16.9x    frame= 6897 fps=405 q=-0.0 size=N/A time=00:04:47.66 bitrate=N/A speed=16.9x    frame= 7128 fps=406 q=-0.0 size=N/A time=00:04:57.29 bitrate=N/A speed=16.9x    frame= 7357 fps=408 q=-0.0 size=N/A time=00:05:06.84 bitrate=N/A speed=  17x    frame= 7490 fps=403 q=-0.0 size=N/A time=00:05:12.39 bitrate=N/A speed=16.8x    frame= 7693 fps=403 q=-0.0 size=N/A time=00:05:20.86 bitrate=N/A speed=16.8x    frame= 7884 fps=402 q=-0.0 size=N/A time=00:05:28.82 bitrate=N/A speed=16.8x    frame= 8080 fps=401 q=-0.0 size=N/A time=00:05:37.00 bitrate=N/A speed=16.7x    frame= 8352 fps=404 q=-0.0 size=N/A time=00:05:48.34 bitrate=N/A speed=16.9x    frame= 8629 fps=408 q=-0.0 size=N/A time=00:05:59.90 bitrate=N/A speed=  17x    frame= 8885 fps=410 q=-0.0 size=N/A time=00:06:10.57 bitrate=N/A speed=17.1x    frame= 9132 fps=411 q=-0.0 size=N/A time=00:06:20.88 bitrate=N/A speed=17.2x    frame= 9413 fps=414 q=-0.0 size=N/A time=00:06:32.60 bitrate=N/A speed=17.3x    frame= 9678 fps=416 q=-0.0 size=N/A time=00:06:43.65 bitrate=N/A speed=17.4x    frame= 9932 fps=418 q=-0.0 size=N/A time=00:06:54.24 bitrate=N/A speed=17.4x    frame=10180 fps=419 q=-0.0 size=N/A time=00:07:04.59 bitrate=N/A speed=17.5x    frame=10437 fps=421 q=-0.0 size=N/A time=00:07:15.30 bitrate=N/A speed=17.6x    frame=10665 fps=422 q=-0.0 size=N/A time=00:07:24.81 bitrate=N/A speed=17.6x    frame=10898 fps=422 q=-0.0 size=N/A time=00:07:34.53 bitrate=N/A speed=17.6x    frame=11106 fps=422 q=-0.0 size=N/A time=00:07:43.21 bitrate=N/A speed=17.6x    frame=11345 fps=422 q=-0.0 size=N/A time=00:07:53.18 bitrate=N/A speed=17.6x    frame=11549 fps=422 q=-0.0 size=N/A time=00:08:01.68 bitrate=N/A speed=17.6x    frame=11789 fps=423 q=-0.0 size=N/A time=00:08:11.69 bitrate=N/A speed=17.6x    frame=12014 fps=423 q=-0.0 size=N/A time=00:08:21.08 bitrate=N/A speed=17.6x    frame=12249 fps=424 q=-0.0 size=N/A time=00:08:30.88 bitrate=N/A speed=17.7x    frame=12491 fps=424 q=-0.0 size=N/A time=00:08:40.97 bitrate=N/A speed=17.7x    frame=12704 fps=424 q=-0.0 size=N/A time=00:08:49.86 bitrate=N/A speed=17.7x    frame=12909 fps=424 q=-0.0 size=N/A time=00:08:58.41 bitrate=N/A speed=17.7x    frame=13147 fps=424 q=-0.0 size=N/A time=00:09:08.33 bitrate=N/A speed=17.7x    frame=13346 fps=424 q=-0.0 size=N/A time=00:09:16.63 bitrate=N/A speed=17.7x    frame=13566 fps=424 q=-0.0 size=N/A time=00:09:25.81 bitrate=N/A speed=17.7x    frame=13818 fps=425 q=-0.0 size=N/A time=00:09:36.36 bitrate=N/A speed=17.7x    frame=14092 fps=426 q=-0.0 size=N/A time=00:09:47.75 bitrate=N/A speed=17.8x    frame=14343 fps=427 q=-0.0 size=N/A time=00:09:58.22 bitrate=N/A speed=17.8x    frame=14609 fps=429 q=-0.0 size=N/A time=00:10:09.31 bitrate=N/A speed=17.9x    frame=14847 fps=429 q=-0.0 size=N/A time=00:10:19.28 bitrate=N/A speed=17.9x    frame=15102 fps=430 q=-0.0 size=N/A time=00:10:29.87 bitrate=N/A speed=17.9x    frame=15344 fps=431 q=-0.0 size=N/A time=00:10:39.97 bitrate=N/A speed=  18x    frame=15602 fps=432 q=-0.0 size=N/A time=00:10:50.73 bitrate=N/A speed=  18x    frame=15843 fps=432 q=-0.0 size=N/A time=00:11:00.78 bitrate=N/A speed=  18x    frame=16107 fps=433 q=-0.0 size=N/A time=00:11:11.79 bitrate=N/A speed=18.1x    frame=16364 fps=434 q=-0.0 size=N/A time=00:11:22.51 bitrate=N/A speed=18.1x    frame=16626 fps=435 q=-0.0 size=N/A time=00:11:33.44 bitrate=N/A speed=18.2x    frame=16893 fps=436 q=-0.0 size=N/A time=00:11:44.57 bitrate=N/A speed=18.2x    frame=17151 fps=437 q=-0.0 size=N/A time=00:11:55.33 bitrate=N/A speed=18.2x    frame=17395 fps=438 q=-0.0 size=N/A time=00:12:05.51 bitrate=N/A speed=18.3x    frame=17634 fps=438 q=-0.0 size=N/A time=00:12:15.48 bitrate=N/A speed=18.3x    frame=17903 fps=439 q=-0.0 size=N/A time=00:12:26.70 bitrate=N/A speed=18.3x    frame=18171 fps=440 q=-0.0 size=N/A time=00:12:37.88 bitrate=N/A speed=18.4x    frame=18428 fps=441 q=-0.0 size=N/A time=00:12:48.60 bitrate=N/A speed=18.4x    frame=18701 fps=442 q=-0.0 size=N/A time=00:12:59.98 bitrate=N/A speed=18.4x    frame=18964 fps=443 q=-0.0 size=N/A time=00:13:10.95 bitrate=N/A speed=18.5x    frame=19192 fps=443 q=-0.0 size=N/A time=00:13:20.46 bitrate=N/A speed=18.5x    frame=19425 fps=443 q=-0.0 size=N/A time=00:13:30.18 bitrate=N/A speed=18.5x    frame=19680 fps=443 q=-0.0 size=N/A time=00:13:40.82 bitrate=N/A speed=18.5x    frame=19932 fps=444 q=-0.0 size=N/A time=00:13:51.33 bitrate=N/A speed=18.5x    frame=20171 fps=444 q=-0.0 size=N/A time=00:14:01.29 bitrate=N/A speed=18.5x    frame=20437 fps=445 q=-0.0 size=N/A time=00:14:12.39 bitrate=N/A speed=18.6x    frame=20670 fps=445 q=-0.0 size=N/A time=00:14:22.11 bitrate=N/A speed=18.6x    frame=20914 fps=445 q=-0.0 size=N/A time=00:14:32.28 bitrate=N/A speed=18.6x    frame=21137 fps=445 q=-0.0 size=N/A time=00:14:41.58 bitrate=N/A speed=18.6x    frame=21381 fps=445 q=-0.0 size=N/A time=00:14:51.76 bitrate=N/A speed=18.6x    frame=21622 fps=446 q=-0.0 size=N/A time=00:15:01.81 bitrate=N/A speed=18.6x    frame=21863 fps=446 q=-0.0 size=N/A time=00:15:11.86 bitrate=N/A speed=18.6x    frame=22084 fps=446 q=-0.0 size=N/A time=00:15:21.08 bitrate=N/A speed=18.6x    frame=22329 fps=446 q=-0.0 size=N/A time=00:15:31.30 bitrate=N/A speed=18.6x    frame=22582 fps=447 q=-0.0 size=N/A time=00:15:41.85 bitrate=N/A speed=18.6x    frame=22813 fps=447 q=-0.0 size=N/A time=00:15:51.49 bitrate=N/A speed=18.6x    frame=23039 fps=447 q=-0.0 size=N/A time=00:16:00.91 bitrate=N/A speed=18.6x    frame=23281 fps=447 q=-0.0 size=N/A time=00:16:11.01 bitrate=N/A speed=18.6x    frame=23529 fps=447 q=-0.0 size=N/A time=00:16:21.35 bitrate=N/A speed=18.6x    frame=23804 fps=448 q=-0.0 size=N/A time=00:16:32.82 bitrate=N/A speed=18.7x    frame=24073 fps=449 q=-0.0 size=N/A time=00:16:44.04 bitrate=N/A speed=18.7x    frame=24346 fps=449 q=-0.0 size=N/A time=00:16:55.43 bitrate=N/A speed=18.7x    frame=24600 fps=450 q=-0.0 size=N/A time=00:17:06.02 bitrate=N/A speed=18.8x    frame=24830 fps=449 q=-0.0 size=N/A time=00:17:15.61 bitrate=N/A speed=18.7x    frame=25046 fps=449 q=-0.0 size=N/A time=00:17:24.62 bitrate=N/A speed=18.7x    frame=25290 fps=449 q=-0.0 size=N/A time=00:17:34.80 bitrate=N/A speed=18.7x    frame=25527 fps=450 q=-0.0 size=N/A time=00:17:44.68 bitrate=N/A speed=18.7x    frame=25793 fps=450 q=-0.0 size=N/A time=00:17:55.78 bitrate=N/A speed=18.8x    frame=26056 fps=451 q=-0.0 size=N/A time=00:18:06.75 bitrate=N/A speed=18.8x    frame=26307 fps=451 q=-0.0 size=N/A time=00:18:17.22 bitrate=N/A speed=18.8x    frame=26573 fps=451 q=-0.0 size=N/A time=00:18:28.31 bitrate=N/A speed=18.8x    frame=26835 fps=452 q=-0.0 size=N/A time=00:18:39.24 bitrate=N/A speed=18.9x    frame=27092 fps=452 q=-0.0 size=N/A time=00:18:49.96 bitrate=N/A speed=18.9x    frame=27358 fps=453 q=-0.0 size=N/A time=00:19:01.05 bitrate=N/A speed=18.9x    frame=27612 fps=453 q=-0.0 size=N/A time=00:19:11.65 bitrate=N/A speed=18.9x    frame=27864 fps=454 q=-0.0 size=N/A time=00:19:22.16 bitrate=N/A speed=18.9x    frame=28120 fps=454 q=-0.0 size=N/A time=00:19:32.83 bitrate=N/A speed=18.9x    frame=28347 fps=454 q=-0.0 size=N/A time=00:19:42.30 bitrate=N/A speed=18.9x    frame=28577 fps=454 q=-0.0 size=N/A time=00:19:51.89 bitrate=N/A speed=18.9x    frame=28842 fps=454 q=-0.0 size=N/A time=00:20:02.95 bitrate=N/A speed=18.9x    frame=29112 fps=455 q=-0.0 size=N/A time=00:20:14.21 bitrate=N/A speed=  19x    frame=29379 fps=455 q=-0.0 size=N/A time=00:20:25.39 bitrate=N/A speed=  19x    frame=29630 fps=456 q=-0.0 size=N/A time=00:20:35.81 bitrate=N/A speed=  19x    frame=29897 fps=456 q=-0.0 size=N/A time=00:20:46.95 bitrate=N/A speed=  19x    frame=30160 fps=456 q=-0.0 size=N/A time=00:20:57.92 bitrate=N/A speed=  19x    frame=30421 fps=457 q=-0.0 size=N/A time=00:21:08.80 bitrate=N/A speed=19.1x    frame=30673 fps=457 q=-0.0 size=N/A time=00:21:19.31 bitrate=N/A speed=19.1x    frame=30932 fps=457 q=-0.0 size=N/A time=00:21:30.12 bitrate=N/A speed=19.1x    frame=31191 fps=458 q=-0.0 size=N/A time=00:21:40.92 bitrate=N/A speed=19.1x    frame=31443 fps=458 q=-0.0 size=N/A time=00:21:51.43 bitrate=N/A speed=19.1x    frame=31686 fps=458 q=-0.0 size=N/A time=00:22:01.57 bitrate=N/A speed=19.1x    frame=31905 fps=458 q=-0.0 size=N/A time=00:22:10.70 bitrate=N/A speed=19.1x    frame=32170 fps=458 q=-0.0 size=N/A time=00:22:21.75 bitrate=N/A speed=19.1x    frame=32417 fps=458 q=-0.0 size=N/A time=00:22:32.05 bitrate=N/A speed=19.1x    frame=32658 fps=459 q=-0.0 size=N/A time=00:22:42.11 bitrate=N/A speed=19.1x    frame=32922 fps=459 q=-0.0 size=N/A time=00:22:53.12 bitrate=N/A speed=19.1x    frame=33081 fps=458 q=-0.0 size=N/A time=00:22:59.75 bitrate=N/A speed=19.1x    frame=33294 fps=457 q=-0.0 size=N/A time=00:23:08.63 bitrate=N/A speed=19.1x    frame=33535 fps=458 q=-0.0 size=N/A time=00:23:18.68 bitrate=N/A speed=19.1x    frame=33747 fps=457 q=-0.0 size=N/A time=00:23:27.53 bitrate=N/A speed=19.1x    frame=33943 fps=457 q=-0.0 size=N/A time=00:23:35.70 bitrate=N/A speed=  19x    frame=34179 fps=457 q=-0.0 size=N/A time=00:23:45.54 bitrate=N/A speed=  19x    frame=34397 fps=456 q=-0.0 size=N/A time=00:23:54.64 bitrate=N/A speed=  19x    [Parsed_psnr_10 @ 000002a6eccab840] PSNR y:48.309846 u:51.256099 v:50.476121 average:49.003170 min:37.687346 max:inf
[out#0/null @ 000002a6e988fc40] video:14858KiB audio:270436KiB subtitle:0KiB other streams:0KiB global headers:0KiB muxing overhead: unknown
frame=34578 fps=457 q=-0.0 Lsize=N/A time=00:24:02.19 bitrate=N/A speed=  19x    
